# xmcd
#
# Track frame offsets:
# 150
# 23658
# 49739
# 65834
# 88664
# 110726
# 142037
# 167925
# 192139
# 213440
# 236694
# 256739
#
# Disc length: 3641 seconds
#
#
# Revision: 1
# Processed by: cddbd v1.5.2PL0 Copyright (c) Steve Scherf et al.
# Submitted via: FreeRIP 2.951 
#
DISCID=ae0e370c
DTITLE=Various Artist - Salsa - Editors Chioce Vol. 1
DYEAR=2008
DGENRE=Latin
TTITLE0=Calambuco - Te Falta Ritmo
TTITLE1=Direct Latin Influence - La La La
TTITLE2=Son de Tikizia - Jugaste Con Mi Destino
TTITLE3=Grupo Latin Vibe - Ramona, La Bailadora
TTITLE4=El Timba (Piombin A.) - Hermano
TTITLE5=Calle Real - Somos Calle Real
TTITLE6=Grupo Chévere - Qué Sabor Tiene
TTITLE7=La Sucursal S.A. - La Sombra
TTITLE8=LA - 33 - Soledad
TTITLE9=Bio Ritmo -Hermano
TTITLE10=Manteca - Fuego
TTITLE11=Conjunto Salsometro - Son De Los Que
EXTD=VBR (192 - 256)
EXTT0=
EXTT1=
EXTT2=
EXTT3=
EXTT4=
EXTT5=
EXTT6=
EXTT7=
EXTT8=
EXTT9=
EXTT10=
EXTT11=
PLAYORDER=
